<?xml version="1.0" encoding="UTF-8"?>
<!DOCTYPE svg PUBLIC "-//W3C//DTD SVG 1.1//EN" "http://www.w3.org/Graphics/SVG/1.1/DTD/svg11.dtd">
<svg xmlns="http://www.w3.org/2000/svg" version="1.1" width="600px" height="265px" style="shape-rendering:geometricPrecision; text-rendering:geometricPrecision; image-rendering:optimizeQuality; fill-rule:evenodd; clip-rule:evenodd" xmlns:xlink="http://www.w3.org/1999/xlink">
<g><path style="opacity:0.886" fill="#202020" d="M 109.5,2.5 C 111.5,2.5 113.5,2.5 115.5,2.5C 115.5,14.8333 115.5,27.1667 115.5,39.5C 113.234,39.8588 111.401,39.1922 110,37.5C 101.426,42.9506 95.4256,40.9506 92,31.5C 90.4106,24.7998 91.9106,18.9665 96.5,14C 100.581,11.9392 104.581,12.1058 108.5,14.5C 109.491,10.5546 109.824,6.55461 109.5,2.5 Z M 102.5,17.5 C 108.076,18.1211 110.41,21.2878 109.5,27C 110.423,31.9089 108.423,34.7423 103.5,35.5C 99.379,33.9793 97.379,30.9793 97.5,26.5C 97.911,22.6666 99.5777,19.6666 102.5,17.5 Z"/></g>
<g><path style="opacity:0.804" fill="#202020" d="M 123.5,3.5 C 128.895,2.5548 130.561,4.5548 128.5,9.5C 123.321,10.6467 121.654,8.64669 123.5,3.5 Z"/></g>
<g><path style="opacity:0.89" fill="#202020" d="M 143.5,12.5 C 148.715,11.7024 153.215,13.0358 157,16.5C 157.5,24.1594 157.666,31.8261 157.5,39.5C 155.234,39.8588 153.401,39.1922 152,37.5C 146.319,41.7803 140.985,41.4469 136,36.5C 134.072,30.5207 135.905,26.354 141.5,24C 144.817,23.5017 148.15,23.335 151.5,23.5C 151.822,21.2776 151.155,19.4443 149.5,18C 146.344,17.3971 143.344,17.8971 140.5,19.5C 139.05,18.3446 138.05,16.8446 137.5,15C 139.611,14.1553 141.611,13.322 143.5,12.5 Z M 145.5,27.5 C 147.5,27.5 149.5,27.5 151.5,27.5C 152.181,32.155 150.181,34.8217 145.5,35.5C 140.308,33.0118 140.308,30.3451 145.5,27.5 Z"/></g>
<g><path style="opacity:0.911" fill="#202020" d="M 174.5,12.5 C 177.941,12.3011 181.274,12.8011 184.5,14C 185.701,14.9025 186.535,16.0692 187,17.5C 187.5,24.8258 187.666,32.1591 187.5,39.5C 185.5,39.5 183.5,39.5 181.5,39.5C 181.666,33.4908 181.499,27.4908 181,21.5C 177.745,16.4427 174.411,16.4427 171,21.5C 170.501,27.4908 170.334,33.4908 170.5,39.5C 168.5,39.5 166.5,39.5 164.5,39.5C 164.5,30.8333 164.5,22.1667 164.5,13.5C 166.766,13.1412 168.599,13.8078 170,15.5C 171.652,14.6006 173.152,13.6006 174.5,12.5 Z"/></g>
<g><path style="opacity:0.871" fill="#202020" d="M 200.5,12.5 C 206.161,12.9068 211.828,13.2401 217.5,13.5C 217.78,16.3882 216.447,17.8882 213.5,18C 215.6,27.5766 211.6,31.9099 201.5,31C 200.167,32 200.167,33 201.5,34C 205.5,34.3333 209.5,34.6667 213.5,35C 217.212,37.5575 218.378,41.0575 217,45.5C 210.091,52.0127 202.258,53.1794 193.5,49C 190.31,43.9491 191.31,39.9491 196.5,37C 194.092,34.6309 194.092,32.1309 196.5,29.5C 191.549,22.1565 192.882,16.4898 200.5,12.5 Z M 203.5,16.5 C 207.827,17.4804 209.327,20.1471 208,24.5C 203.626,27.7934 200.792,26.7934 199.5,21.5C 200.127,19.2127 201.46,17.546 203.5,16.5 Z M 201.5,39.5 C 204.649,39.2114 207.649,39.7114 210.5,41C 211.517,42.0495 211.684,43.2161 211,44.5C 207.014,46.7013 202.848,47.0346 198.5,45.5C 196.86,42.1469 197.86,40.1469 201.5,39.5 Z"/></g>
<g><path style="opacity:0.88" fill="#202020" d="M 229.5,12.5 C 242.993,12.4317 248.16,19.0983 245,32.5C 240.852,39.996 234.685,42.1626 226.5,39C 220.401,33.2566 218.901,26.4232 222,18.5C 224.109,15.8782 226.609,13.8782 229.5,12.5 Z M 231.5,17.5 C 236.946,17.9491 239.612,20.9491 239.5,26.5C 239.12,34.0874 235.62,36.4207 229,33.5C 225.686,27.4428 226.52,22.1094 231.5,17.5 Z"/></g>
<g><path style="opacity:0.89" fill="#202020" d="M 123.5,13.5 C 125.5,13.5 127.5,13.5 129.5,13.5C 129.667,24.505 129.5,35.505 129,46.5C 126.459,51.0685 122.625,52.5685 117.5,51C 116.24,49.1862 116.24,47.3529 117.5,45.5C 119.909,46.7219 121.742,46.0553 123,43.5C 123.5,33.5056 123.666,23.5056 123.5,13.5 Z"/></g>
<g><path style="opacity:0.843" fill="#d1d1d1" d="M 337.5,65.5 C 336.432,66.4345 335.099,66.7678 333.5,66.5C 322.833,66.5 312.167,66.5 301.5,66.5C 301.17,72.8682 301.504,79.2015 302.5,85.5C 307.833,89.5 307.833,93.5 302.5,97.5C 301.502,105.807 301.169,114.14 301.5,122.5C 300.833,122.5 300.167,122.5 299.5,122.5C 299.831,114.14 299.498,105.807 298.5,97.5C 297.914,97.2907 297.414,96.9574 297,96.5C 291.5,102.667 286,108.833 280.5,115C 283.039,117.37 285.372,119.87 287.5,122.5C 286.5,122.5 285.5,122.5 284.5,122.5C 282.873,120.37 281.04,118.37 279,116.5C 277.668,118.66 276.168,120.66 274.5,122.5C 273.5,122.5 272.5,122.5 271.5,122.5C 273.666,120.163 275.666,117.663 277.5,115C 275.667,113.167 273.833,111.333 272,109.5C 265.018,113.733 258.184,118.066 251.5,122.5C 249.833,122.5 248.167,122.5 246.5,122.5C 254.27,117.441 262.27,112.608 270.5,108C 262.965,100.298 255.298,92.7975 247.5,85.5C 248.632,84.6457 249.965,84.6457 251.5,85.5C 257.964,92.4649 264.631,99.2982 271.5,106C 272.5,106.667 273.5,106.667 274.5,106C 280.918,102.041 287.418,98.2073 294,94.5C 293.65,90.4938 295.15,87.4938 298.5,85.5C 299.496,79.2015 299.83,72.8682 299.5,66.5C 296.167,66.5 292.833,66.5 289.5,66.5C 289.5,66.1667 289.5,65.8333 289.5,65.5C 292.833,65.5 296.167,65.5 299.5,65.5C 300.167,46.8333 300.833,46.8333 301.5,65.5C 313.5,65.5 325.5,65.5 337.5,65.5 Z M 298.5,87.5 C 299.634,89.9664 299.801,92.633 299,95.5C 295.868,92.9869 295.701,90.3202 298.5,87.5 Z M 301.5,87.5 C 305.255,89.8773 305.421,92.544 302,95.5C 301.503,92.854 301.336,90.1873 301.5,87.5 Z M 299.5,122.5 C 295.5,122.5 291.5,122.5 287.5,122.5C 285.372,119.87 283.039,117.37 280.5,115C 286,108.833 291.5,102.667 297,96.5C 297.414,96.9574 297.914,97.2907 298.5,97.5C 299.498,105.807 299.831,114.14 299.5,122.5 Z M 289.5,100.5 C 286.237,104.94 282.737,109.273 279,113.5C 277.5,112 276,110.5 274.5,109C 279.23,105.636 284.23,102.803 289.5,100.5 Z M 271.5,122.5 C 264.833,122.5 258.167,122.5 251.5,122.5C 258.184,118.066 265.018,113.733 272,109.5C 273.833,111.333 275.667,113.167 277.5,115C 275.666,117.663 273.666,120.163 271.5,122.5 Z M 284.5,122.5 C 281.167,122.5 277.833,122.5 274.5,122.5C 276.168,120.66 277.668,118.66 279,116.5C 281.04,118.37 282.873,120.37 284.5,122.5 Z"/></g>
<g><path style="opacity:0.946" fill="#6b1f22" d="M 510.5,84.5 C 510.167,84.5 509.833,84.5 509.5,84.5C 503.833,84.5 498.167,84.5 492.5,84.5C 491.167,84.5 489.833,84.5 488.5,84.5C 482.5,84.5 476.5,84.5 470.5,84.5C 470.5,90.5 470.5,96.5 470.5,102.5C 470.5,103.833 470.5,105.167 470.5,106.5C 470.5,115.833 470.5,125.167 470.5,134.5C 470.5,135.167 470.5,135.833 470.5,136.5C 470.5,146.5 470.5,156.5 470.5,166.5C 470.5,167.5 470.5,168.5 470.5,169.5C 470.5,181.167 470.5,192.833 470.5,204.5C 470.5,204.833 470.5,205.167 470.5,205.5C 463.327,206.544 455.994,206.544 448.5,205.5C 448.5,205.167 448.5,204.833 448.5,204.5C 448.5,185.167 448.5,165.833 448.5,146.5C 448.5,145.5 448.5,144.5 448.5,143.5C 448.5,141.167 448.5,138.833 448.5,136.5C 448.5,135.833 448.5,135.167 448.5,134.5C 448.5,132.5 448.5,130.5 448.5,128.5C 448.5,127.5 448.5,126.5 448.5,125.5C 448.5,111.833 448.5,98.1667 448.5,84.5C 446.167,84.5 443.833,84.5 441.5,84.5C 440.833,84.5 440.167,84.5 439.5,84.5C 422.799,83.8482 406.466,84.5149 390.5,86.5C 389.662,86.8417 389.328,87.5084 389.5,88.5C 389.092,89.6431 388.425,90.6431 387.5,91.5C 382.35,88.9216 377.017,86.9216 371.5,85.5C 370.833,84.1667 370.167,84.1667 369.5,85.5C 364.638,84.1002 359.638,83.4335 354.5,83.5C 353.167,83.5 351.833,83.5 350.5,83.5C 349.833,83.5 349.5,83.8333 349.5,84.5C 340.472,85.528 335.472,90.528 334.5,99.5C 333.646,101.035 333.646,102.368 334.5,103.5C 335.296,108.809 337.962,112.975 342.5,116C 345.723,118.062 349.057,119.896 352.5,121.5C 352.5,122.167 352.833,122.5 353.5,122.5C 358.823,124.493 364.156,126.493 369.5,128.5C 369.833,129.5 370.5,130.167 371.5,130.5C 374.45,131.308 377.117,132.642 379.5,134.5C 380.287,136.104 381.62,136.771 383.5,136.5C 395.829,147.154 400.162,160.487 396.5,176.5C 396.167,177.833 395.833,179.167 395.5,180.5C 391.833,191.5 384.5,198.833 373.5,202.5C 369.952,203.13 366.619,204.13 363.5,205.5C 351.846,206.812 340.179,206.812 328.5,205.5C 326.393,204.532 324.059,204.198 321.5,204.5C 317.693,203.019 313.86,201.352 310,199.5C 309.5,192.174 309.334,184.841 309.5,177.5C 321.937,182.859 334.937,185.859 348.5,186.5C 350.035,187.354 351.368,187.354 352.5,186.5C 359.08,186.781 364.747,184.781 369.5,180.5C 370.906,180.027 371.573,179.027 371.5,177.5C 375.5,171.5 375.5,165.5 371.5,159.5C 371.771,157.62 371.104,156.287 369.5,155.5C 364.49,151.993 359.157,148.993 353.5,146.5C 353.5,145.833 353.167,145.5 352.5,145.5C 349.327,144.83 346.327,143.664 343.5,142C 331.505,141.5 319.505,141.333 307.5,141.5C 306.5,141.5 305.5,141.5 304.5,141.5C 303.5,141.5 302.5,141.5 301.5,141.5C 300.833,141.5 300.167,141.5 299.5,141.5C 298.167,141.5 296.833,141.5 295.5,141.5C 294.5,141.5 293.5,141.5 292.5,141.5C 280.523,142.366 268.523,142.699 256.5,142.5C 255.652,141.375 254.652,141.375 253.5,142.5C 247.5,142.5 241.5,142.5 235.5,142.5C 235.5,149.167 235.5,155.833 235.5,162.5C 234.314,163.961 234.314,165.295 235.5,166.5C 235.5,172.5 235.5,178.5 235.5,184.5C 240.167,184.5 244.833,184.5 249.5,184.5C 250.705,185.686 252.039,185.686 253.5,184.5C 265.518,184.358 277.518,184.691 289.5,185.5C 289.5,191.833 289.5,198.167 289.5,204.5C 289.5,204.833 289.5,205.167 289.5,205.5C 259.831,205.333 230.165,205.5 200.5,206C 194.5,209.251 188.334,212.084 182,214.5C 177.163,212.835 173.33,209.835 170.5,205.5C 170.158,204.662 169.492,204.328 168.5,204.5C 166.646,200.779 164.313,197.446 161.5,194.5C 161.771,192.62 161.104,191.287 159.5,190.5C 152.819,179.797 146.153,169.131 139.5,158.5C 139.672,157.508 139.338,156.842 138.5,156.5C 137.052,154.445 135.719,152.278 134.5,150C 127.253,149.815 120.087,149.315 113,148.5C 112.5,159.495 112.333,170.495 112.5,181.5C 112.5,182.5 112.5,183.5 112.5,184.5C 112.5,191.167 112.5,197.833 112.5,204.5C 112.5,204.833 112.5,205.167 112.5,205.5C 105.187,206.187 97.8536,206.521 90.5,206.5C 90.5,183.167 90.5,159.833 90.5,136.5C 90.5,135.833 90.5,135.167 90.5,134.5C 90.8025,111.467 90.4692,88.4672 89.5,65.5C 106.833,65.5 124.167,65.5 141.5,65.5C 144.287,66.4767 147.287,66.81 150.5,66.5C 153.254,67.9459 156.254,68.9459 159.5,69.5C 159.833,70.5 160.5,71.1667 161.5,71.5C 171.861,75.7036 178.028,83.3703 180,94.5C 181.309,100.843 181.475,107.176 180.5,113.5C 180.167,114.833 179.833,116.167 179.5,117.5C 177.821,124.17 174.487,129.837 169.5,134.5C 167.973,134.427 166.973,135.094 166.5,136.5C 165.833,137.167 165.167,137.833 164.5,138.5C 163.508,138.328 162.842,138.662 162.5,139.5C 162.167,139.5 161.833,139.5 161.5,139.5C 160.5,139.833 159.833,140.5 159.5,141.5C 157.91,141.628 156.577,142.295 155.5,143.5C 156.608,146.059 157.941,148.392 159.5,150.5C 159.229,152.38 159.896,153.713 161.5,154.5C 167.87,165.401 174.87,175.901 182.5,186C 184.473,186.495 186.473,186.662 188.5,186.5C 189.5,186.5 190.5,186.5 191.5,186.5C 197.167,186.5 202.833,186.5 208.5,186.5C 209.5,186.5 210.5,186.5 211.5,186.5C 212.496,172.677 212.829,158.677 212.5,144.5C 212.5,143.833 212.5,143.167 212.5,142.5C 212.5,140.5 212.5,138.5 212.5,136.5C 212.5,135.833 212.5,135.167 212.5,134.5C 212.5,118.5 212.5,102.5 212.5,86.5C 212.5,85.1667 212.5,83.8333 212.5,82.5C 212.5,77.1667 212.5,71.8333 212.5,66.5C 212.5,66.1667 212.5,65.8333 212.5,65.5C 238.167,65.5 263.833,65.5 289.5,65.5C 289.5,65.8333 289.5,66.1667 289.5,66.5C 289.5,72.5 289.5,78.5 289.5,84.5C 276.851,85.3216 264.185,85.6549 251.5,85.5C 249.965,84.6457 248.632,84.6457 247.5,85.5C 243.5,85.5 239.5,85.5 235.5,85.5C 235.5,97.8333 235.5,110.167 235.5,122.5C 239.167,122.5 242.833,122.5 246.5,122.5C 248.167,122.5 249.833,122.5 251.5,122.5C 258.167,122.5 264.833,122.5 271.5,122.5C 272.5,122.5 273.5,122.5 274.5,122.5C 277.833,122.5 281.167,122.5 284.5,122.5C 285.5,122.5 286.5,122.5 287.5,122.5C 291.5,122.5 295.5,122.5 299.5,122.5C 300.167,122.5 300.833,122.5 301.5,122.5C 305.167,122.5 308.833,122.5 312.5,122.5C 313.5,122.5 314.5,122.5 315.5,122.5C 316.167,122.5 316.5,122.167 316.5,121.5C 316.5,120.167 315.833,119.5 314.5,119.5C 305.744,96.0982 312.077,78.4316 333.5,66.5C 335.099,66.7678 336.432,66.4345 337.5,65.5C 350.107,63.0298 362.773,62.8632 375.5,65C 420.499,65.5 465.499,65.6667 510.5,65.5C 510.5,71.8333 510.5,78.1667 510.5,84.5 Z M 150.5,66.5 C 153.5,66.5 156.5,66.5 159.5,66.5C 159.5,67.5 159.5,68.5 159.5,69.5C 156.254,68.9459 153.254,67.9459 150.5,66.5 Z M 212.5,66.5 C 212.5,71.8333 212.5,77.1667 212.5,82.5C 204.833,89.5 197.5,96.8333 190.5,104.5C 188.5,104.5 186.5,104.5 184.5,104.5C 184.662,102.473 184.495,100.473 184,98.5C 183.501,102.486 183.334,106.486 183.5,110.5C 182.833,111.833 181.833,112.833 180.5,113.5C 181.475,107.176 181.309,100.843 180,94.5C 178.028,83.3703 171.861,75.7036 161.5,71.5C 161.5,69.8333 161.5,68.1667 161.5,66.5C 178.5,66.5 195.5,66.5 212.5,66.5 Z M 289.5,66.5 C 292.833,66.5 296.167,66.5 299.5,66.5C 299.83,72.8682 299.496,79.2015 298.5,85.5C 295.15,87.4938 293.65,90.4938 294,94.5C 287.418,98.2073 280.918,102.041 274.5,106C 273.5,106.667 272.5,106.667 271.5,106C 264.631,99.2982 257.964,92.4649 251.5,85.5C 264.185,85.6549 276.851,85.3216 289.5,84.5C 289.5,78.5 289.5,72.5 289.5,66.5 Z M 333.5,66.5 C 312.077,78.4316 305.744,96.0982 314.5,119.5C 313.833,120.5 313.167,121.5 312.5,122.5C 308.833,122.5 305.167,122.5 301.5,122.5C 301.169,114.14 301.502,105.807 302.5,97.5C 307.833,93.5 307.833,89.5 302.5,85.5C 301.504,79.2015 301.17,72.8682 301.5,66.5C 312.167,66.5 322.833,66.5 333.5,66.5 Z M 367.5,67.5 C 363.806,71.8604 359.806,75.8604 355.5,79.5C 338.086,78.9143 329.752,87.2476 330.5,104.5C 326.5,108.167 322.5,111.833 318.5,115.5C 310.237,90.5323 318.904,74.699 344.5,68C 348.555,67.7685 352.555,67.2685 356.5,66.5C 360.094,67.4259 363.76,67.7592 367.5,67.5 Z M 94.5,68.5 C 110.858,68.2414 127.192,68.7414 143.5,70C 149.041,70.8843 154.375,72.3843 159.5,74.5C 159.5,81.1667 159.5,87.8333 159.5,94.5C 155.747,88.5962 150.414,84.7629 143.5,83C 132.305,81.9412 121.138,81.1079 110,80.5C 109.517,81.448 109.351,82.448 109.5,83.5C 104.167,78.8333 99.1667,73.8333 94.5,68.5 Z M 226.5,68.5 C 223.457,72.5436 219.791,75.8769 215.5,78.5C 215.5,75.1667 215.5,71.8333 215.5,68.5C 219.167,68.5 222.833,68.5 226.5,68.5 Z M 234.5,68.5 C 251.833,68.5 269.167,68.5 286.5,68.5C 286.5,72.8333 286.5,77.1667 286.5,81.5C 273.167,81.5 259.833,81.5 246.5,81.5C 242.5,77.1667 238.5,72.8333 234.5,68.5 Z M 373.5,68.5 C 395.5,68.5 417.5,68.5 439.5,68.5C 439.5,72.8333 439.5,77.1667 439.5,81.5C 421.992,81.17 404.659,81.5033 387.5,82.5C 382.5,78.1667 377.833,73.5 373.5,68.5 Z M 441.5,68.5 C 462.833,68.5 484.167,68.5 505.5,68.5C 501.36,73.0613 497.027,77.3946 492.5,81.5C 484.167,81.5 475.833,81.5 467.5,81.5C 467.5,89.8333 467.5,98.1667 467.5,106.5C 462.167,111.5 456.833,116.5 451.5,121.5C 451.5,108.167 451.5,94.8333 451.5,81.5C 448.167,81.5 444.833,81.5 441.5,81.5C 441.5,77.1667 441.5,72.8333 441.5,68.5 Z M 215.5,134.5 C 215.5,117.167 215.5,99.8333 215.5,82.5C 220.131,78.3701 224.631,74.0367 229,69.5C 229.833,90.5079 229.666,111.508 228.5,132.5C 224.374,134.281 220.041,134.948 215.5,134.5 Z M 243.5,81.5 C 239.5,81.5 235.5,81.5 231.5,81.5C 231.334,77.4862 231.501,73.4862 232,69.5C 236.037,73.369 239.87,77.369 243.5,81.5 Z M 369.5,80.5 C 366.14,80.3841 362.807,80.0508 359.5,79.5C 362.462,76.0359 365.629,72.7025 369,69.5C 369.499,73.1516 369.665,76.8183 369.5,80.5 Z M 386.5,84.5 C 386.265,85.0967 385.765,85.4301 385,85.5C 380.571,83.8565 376.071,82.5231 371.5,81.5C 371.335,77.8183 371.501,74.1516 372,70.5C 376.702,75.3699 381.535,80.0366 386.5,84.5 Z M 507.5,70.5 C 507.5,74.1667 507.5,77.8333 507.5,81.5C 503.833,81.5 500.167,81.5 496.5,81.5C 499.833,77.5 503.5,73.8333 507.5,70.5 Z M 93.5,72.5 C 98.5372,77.5393 103.871,82.206 109.5,86.5C 109.5,102.5 109.5,118.5 109.5,134.5C 104.167,134.5 98.8333,134.5 93.5,134.5C 93.5,113.833 93.5,93.1667 93.5,72.5 Z M 161.5,75.5 C 172.031,82.553 177.364,92.553 177.5,105.5C 176.961,110.619 175.961,115.619 174.5,120.5C 170.202,124.296 166.036,128.296 162,132.5C 161.5,113.503 161.333,94.5029 161.5,75.5 Z M 354.5,83.5 C 359.638,83.4335 364.638,84.1002 369.5,85.5C 369.5,99.8333 369.5,114.167 369.5,128.5C 364.156,126.493 358.823,124.493 353.5,122.5C 353.5,118.5 353.5,114.5 353.5,110.5C 356.505,110.747 359.005,109.747 361,107.5C 364.867,94.1995 360.034,89.1995 346.5,92.5C 349.167,89.5 351.833,86.5 354.5,83.5 Z M 149.5,124.5 C 149.047,123.542 148.381,122.708 147.5,122C 153.622,115.174 155.122,107.34 152,98.5C 148.267,92.2681 142.767,89.2681 135.5,89.5C 135.089,96.334 135.756,103.001 137.5,109.5C 136.448,109.649 135.448,109.483 134.5,109C 127.298,101.631 119.965,94.4641 112.5,87.5C 112.281,86.325 112.614,85.325 113.5,84.5C 121.451,85.3028 129.451,85.8028 137.5,86C 155.146,89.7846 160.98,100.285 155,117.5C 153.629,120.266 151.796,122.599 149.5,124.5 Z M 349.5,84.5 C 344.833,89.8333 339.833,94.8333 334.5,99.5C 335.472,90.528 340.472,85.528 349.5,84.5 Z M 439.5,84.5 C 439.667,101.17 439.5,117.837 439,134.5C 422.965,118.298 406.799,102.298 390.5,86.5C 406.466,84.5149 422.799,83.8482 439.5,84.5 Z M 441.5,84.5 C 443.833,84.5 446.167,84.5 448.5,84.5C 448.5,98.1667 448.5,111.833 448.5,125.5C 446.203,127.294 444.037,129.294 442,131.5C 441.5,115.837 441.333,100.17 441.5,84.5 Z M 247.5,85.5 C 255.298,92.7975 262.965,100.298 270.5,108C 262.27,112.608 254.27,117.441 246.5,122.5C 242.833,122.5 239.167,122.5 235.5,122.5C 235.5,110.167 235.5,97.8333 235.5,85.5C 239.5,85.5 243.5,85.5 247.5,85.5 Z M 371.5,85.5 C 377.017,86.9216 382.35,88.9216 387.5,91.5C 388.425,90.6431 389.092,89.6431 389.5,88.5C 404.965,103.465 420.299,118.632 435.5,134C 416.836,134.5 398.17,134.667 379.5,134.5C 377.117,132.642 374.45,131.308 371.5,130.5C 371.5,115.5 371.5,100.5 371.5,85.5 Z M 212.5,86.5 C 212.5,102.5 212.5,118.5 212.5,134.5C 198.167,134.5 183.833,134.5 169.5,134.5C 174.487,129.837 177.821,124.17 179.5,117.5C 184.46,114.208 188.793,110.208 192.5,105.5C 197.5,105.5 202.5,105.5 207.5,105.5C 208.798,103.904 208.798,103.571 207.5,104.5C 203.167,104.5 198.833,104.5 194.5,104.5C 200.167,98.1667 206.167,92.1667 212.5,86.5 Z M 298.5,87.5 C 295.701,90.3202 295.868,92.9869 299,95.5C 299.801,92.633 299.634,89.9664 298.5,87.5 Z M 301.5,87.5 C 301.336,90.1873 301.503,92.854 302,95.5C 305.421,92.544 305.255,89.8773 301.5,87.5 Z M 112.5,90.5 C 120.132,97.6308 127.632,104.964 135,112.5C 135.499,116.821 135.666,121.154 135.5,125.5C 139.007,125.693 142.34,125.027 145.5,123.5C 146.522,123.855 147.189,124.522 147.5,125.5C 144.372,127.154 141.039,128.321 137.5,129C 129.255,129.183 121.088,129.683 113,130.5C 112.5,117.171 112.333,103.837 112.5,90.5 Z M 349.5,93.5 C 350.5,93.5 351.5,93.5 352.5,93.5C 352.5,98.5 352.5,103.5 352.5,108.5C 346.294,107.442 344.128,103.776 346,97.5C 346.69,95.6498 347.856,94.3164 349.5,93.5 Z M 353.5,93.5 C 358.396,93.5633 360.729,96.0633 360.5,101C 360.729,105.937 358.396,108.437 353.5,108.5C 353.5,103.5 353.5,98.5 353.5,93.5 Z M 344.5,94.5 C 342.656,99.7534 343.323,104.587 346.5,109C 348.345,110.128 350.345,110.628 352.5,110.5C 352.5,114.167 352.5,117.833 352.5,121.5C 349.057,119.896 345.723,118.062 342.5,116C 337.962,112.975 335.296,108.809 334.5,103.5C 337.833,100.5 341.167,97.5 344.5,94.5 Z M 299.5,122.5 C 295.5,122.5 291.5,122.5 287.5,122.5C 285.372,119.87 283.039,117.37 280.5,115C 286,108.833 291.5,102.667 297,96.5C 297.414,96.9574 297.914,97.2907 298.5,97.5C 299.498,105.807 299.831,114.14 299.5,122.5 Z M 289.5,100.5 C 284.23,102.803 279.23,105.636 274.5,109C 276,110.5 277.5,112 279,113.5C 282.737,109.273 286.237,104.94 289.5,100.5 Z M 188.5,105.5 C 187.5,107.167 186.167,108.5 184.5,109.5C 184.5,108.167 184.5,106.833 184.5,105.5C 185.833,105.5 187.167,105.5 188.5,105.5 Z M 330.5,107.5 C 335.063,116.717 342.397,122.717 352.5,125.5C 352.5,128.5 352.5,131.5 352.5,134.5C 336.163,134.667 319.83,134.5 303.5,134C 306.371,131.297 309.038,128.464 311.5,125.5C 315.555,125.824 319.555,125.491 323.5,124.5C 322.156,122.471 320.823,120.471 319.5,118.5C 323.473,115.194 327.14,111.527 330.5,107.5 Z M 136.5,91.5 C 148.145,93.6632 152.978,100.663 151,112.5C 150.113,115.388 148.446,117.721 146,119.5C 142.882,117.385 140.048,114.885 137.5,112C 140.128,109.415 140.128,106.915 137.5,104.5C 136.508,100.217 136.174,95.8839 136.5,91.5 Z M 271.5,122.5 C 264.833,122.5 258.167,122.5 251.5,122.5C 258.184,118.066 265.018,113.733 272,109.5C 273.833,111.333 275.667,113.167 277.5,115C 275.666,117.663 273.666,120.163 271.5,122.5 Z M 467.5,110.5 C 467.5,118.5 467.5,126.5 467.5,134.5C 462.167,134.5 456.833,134.5 451.5,134.5C 451.5,131.167 451.5,127.833 451.5,124.5C 456.537,119.461 461.871,114.794 467.5,110.5 Z M 136.5,114.5 C 139.146,116.479 141.479,118.812 143.5,121.5C 141.392,122.944 139.059,123.61 136.5,123.5C 136.5,120.5 136.5,117.5 136.5,114.5 Z M 284.5,122.5 C 281.167,122.5 277.833,122.5 274.5,122.5C 276.168,120.66 277.668,118.66 279,116.5C 281.04,118.37 282.873,120.37 284.5,122.5 Z M 159.5,119.5 C 159.666,124.179 159.499,128.845 159,133.5C 156.96,131.63 155.127,129.63 153.5,127.5C 155.512,124.795 157.512,122.128 159.5,119.5 Z M 267.5,125.5 C 265.78,128.731 263.447,131.564 260.5,134C 250.833,134.667 241.167,134.667 231.5,134C 235.36,131.239 239.36,128.739 243.5,126.5C 251.51,126.356 259.51,126.023 267.5,125.5 Z M 271.5,125.5 C 277.167,125.5 282.833,125.5 288.5,125.5C 290.962,128.464 293.629,131.297 296.5,134C 285.818,134.832 275.151,134.666 264.5,133.5C 266.856,130.814 269.189,128.147 271.5,125.5 Z M 291.5,125.5 C 294.167,125.5 296.833,125.5 299.5,125.5C 299.664,128.187 299.497,130.854 299,133.5C 296.295,130.964 293.795,128.297 291.5,125.5 Z M 301.5,125.5 C 303.833,125.5 306.167,125.5 308.5,125.5C 306.539,127.963 304.372,130.297 302,132.5C 301.503,130.19 301.337,127.857 301.5,125.5 Z M 231.5,126.5 C 233.5,126.5 235.5,126.5 237.5,126.5C 236,128.179 234.167,129.512 232,130.5C 231.51,129.207 231.343,127.873 231.5,126.5 Z M 353.5,126.5 C 358.833,128.833 364.167,131.167 369.5,133.5C 364.36,134.488 359.026,134.821 353.5,134.5C 353.5,131.833 353.5,129.167 353.5,126.5 Z M 151.5,128.5 C 152.96,130.463 154.627,132.296 156.5,134C 141.504,134.5 126.504,134.667 111.5,134.5C 120.324,133.67 129.324,133.17 138.5,133C 143.172,132.387 147.506,130.887 151.5,128.5 Z M 448.5,128.5 C 448.5,130.5 448.5,132.5 448.5,134.5C 446.473,134.662 444.473,134.495 442.5,134C 444.37,131.96 446.37,130.127 448.5,128.5 Z M 93.5,136.5 C 115.007,136.169 136.34,136.503 157.5,137.5C 155.046,139.06 152.38,140.06 149.5,140.5C 149.433,141.959 149.766,143.292 150.5,144.5C 147.5,147.167 144.5,149.833 141.5,152.5C 139.834,150.813 138.5,148.813 137.5,146.5C 128.471,145.808 119.471,145.141 110.5,144.5C 109.501,158.15 109.167,171.817 109.5,185.5C 104.167,190.5 98.8333,195.5 93.5,200.5C 93.5,179.167 93.5,157.833 93.5,136.5 Z M 166.5,136.5 C 181.833,136.5 197.167,136.5 212.5,136.5C 212.5,138.5 212.5,140.5 212.5,142.5C 202.812,147.429 193.312,152.763 184,158.5C 177.297,151.965 170.797,145.298 164.5,138.5C 165.167,137.833 165.833,137.167 166.5,136.5 Z M 215.5,136.5 C 221.742,136.431 221.742,137.431 215.5,139.5C 215.5,138.5 215.5,137.5 215.5,136.5 Z M 215.5,185.5 C 215.5,171.167 215.5,156.833 215.5,142.5C 219.694,139.403 224.361,137.403 229.5,136.5C 229.667,147.838 229.5,159.172 229,170.5C 224.634,175.695 220.134,180.695 215.5,185.5 Z M 257.5,138.5 C 248.833,138.5 240.167,138.5 231.5,138.5C 235.614,137.174 240.114,136.507 245,136.5C 249.5,136.667 254,136.833 258.5,137C 257.944,137.383 257.611,137.883 257.5,138.5 Z M 296.5,138.5 C 284.5,138.5 272.5,138.5 260.5,138.5C 260.611,137.883 260.944,137.383 261.5,137C 273.5,136.333 285.5,136.333 297.5,137C 296.944,137.383 296.611,137.883 296.5,138.5 Z M 352.5,141.5 C 350.86,140.68 349.193,139.847 347.5,139C 332.837,138.5 318.17,138.333 303.5,138.5C 303.389,137.883 303.056,137.383 302.5,137C 319.163,136.5 335.83,136.333 352.5,136.5C 352.5,138.167 352.5,139.833 352.5,141.5 Z M 369.5,150.5 C 364.718,146.776 359.385,144.109 353.5,142.5C 353.5,140.5 353.5,138.5 353.5,136.5C 358.833,136.5 364.167,136.5 369.5,136.5C 369.5,141.167 369.5,145.833 369.5,150.5 Z M 375.5,136.5 C 393.49,148.439 398.157,164.439 389.5,184.5C 385.5,187.833 381.833,191.5 378.5,195.5C 376.287,196.773 373.954,197.773 371.5,198.5C 371.5,193.833 371.5,189.167 371.5,184.5C 376.608,180.298 378.942,174.798 378.5,168C 378.708,161.589 376.374,156.422 371.5,152.5C 371.5,147.167 371.5,141.833 371.5,136.5C 372.833,136.5 374.167,136.5 375.5,136.5 Z M 383.5,136.5 C 401.17,136.333 418.836,136.5 436.5,137C 426.631,146.702 416.964,156.535 407.5,166.5C 405.5,166.5 403.5,166.5 401.5,166.5C 401.662,164.473 401.495,162.473 401,160.5C 400.501,164.486 400.334,168.486 400.5,172.5C 399.5,174.167 398.167,175.5 396.5,176.5C 400.162,160.487 395.829,147.154 383.5,136.5 Z M 448.5,136.5 C 448.5,138.833 448.5,141.167 448.5,143.5C 446.037,141.539 443.703,139.372 441.5,137C 443.81,136.503 446.143,136.337 448.5,136.5 Z M 451.5,136.5 C 456.833,136.5 462.167,136.5 467.5,136.5C 467.5,145.167 467.5,153.833 467.5,162.5C 462.167,157.5 456.833,152.5 451.5,147.5C 451.5,143.833 451.5,140.167 451.5,136.5 Z M 439.5,166.5 C 429.833,166.5 420.167,166.5 410.5,166.5C 419.798,156.702 429.298,147.035 439,137.5C 439.5,147.161 439.666,156.828 439.5,166.5 Z M 161.5,139.5 C 161.833,139.5 162.167,139.5 162.5,139.5C 168.631,146.131 174.964,152.631 181.5,159C 178.833,161 176.167,163 173.5,165C 177.941,172.599 182.941,179.766 188.5,186.5C 186.473,186.662 184.473,186.495 182.5,186C 174.87,175.901 167.87,165.401 161.5,154.5C 161.5,149.5 161.5,144.5 161.5,139.5 Z M 448.5,146.5 C 448.5,165.833 448.5,185.167 448.5,204.5C 446.167,204.5 443.833,204.5 441.5,204.5C 441.5,192.167 441.5,179.833 441.5,167.5C 442.5,167.5 443.5,167.5 444.5,167.5C 445.798,165.904 445.798,165.571 444.5,166.5C 443.5,166.5 442.5,166.5 441.5,166.5C 441.334,157.827 441.5,149.16 442,140.5C 444.037,142.706 446.203,144.706 448.5,146.5 Z M 159.5,141.5 C 159.5,144.5 159.5,147.5 159.5,150.5C 157.941,148.392 156.608,146.059 155.5,143.5C 156.577,142.295 157.91,141.628 159.5,141.5 Z M 292.5,141.5 C 288.5,146.167 284.167,150.5 279.5,154.5C 279.5,151.5 279.5,148.5 279.5,145.5C 280.429,144.202 280.096,144.202 278.5,145.5C 278.5,149.167 278.5,152.833 278.5,156.5C 268.833,165.833 259.167,175.167 249.5,184.5C 244.833,184.5 240.167,184.5 235.5,184.5C 235.5,178.5 235.5,172.5 235.5,166.5C 242.5,158.5 249.5,150.5 256.5,142.5C 268.523,142.699 280.523,142.366 292.5,141.5 Z M 295.5,141.5 C 296.833,141.5 298.167,141.5 299.5,141.5C 299.5,162.5 299.5,183.5 299.5,204.5C 296.167,204.5 292.833,204.5 289.5,204.5C 289.5,198.167 289.5,191.833 289.5,185.5C 277.518,184.691 265.518,184.358 253.5,184.5C 261.5,175.833 269.833,167.5 278.5,159.5C 278.5,166.833 278.5,174.167 278.5,181.5C 280.096,182.798 280.429,182.798 279.5,181.5C 279.5,173.5 279.5,165.5 279.5,157.5C 285.167,152.5 290.5,147.167 295.5,141.5 Z M 301.5,141.5 C 302.5,141.5 303.5,141.5 304.5,141.5C 319.167,156.5 333.833,171.5 348.5,186.5C 334.937,185.859 321.937,182.859 309.5,177.5C 309.334,184.841 309.5,192.174 310,199.5C 313.86,201.352 317.693,203.019 321.5,204.5C 314.833,204.5 308.167,204.5 301.5,204.5C 301.5,183.5 301.5,162.5 301.5,141.5 Z M 307.5,141.5 C 319.505,141.333 331.505,141.5 343.5,142C 346.327,143.664 349.327,144.83 352.5,145.5C 352.5,149.833 352.5,154.167 352.5,158.5C 346.268,158.566 343.268,161.733 343.5,168C 343.333,174.5 346.5,177.667 353,177.5C 359.5,177.667 362.667,174.5 362.5,168C 362.732,161.733 359.732,158.566 353.5,158.5C 353.5,154.5 353.5,150.5 353.5,146.5C 359.157,148.993 364.49,151.993 369.5,155.5C 369.5,163.833 369.5,172.167 369.5,180.5C 364.747,184.781 359.08,186.781 352.5,186.5C 337.194,171.86 322.194,156.86 307.5,141.5 Z M 253.5,142.5 C 247.842,149.491 241.842,156.157 235.5,162.5C 235.5,155.833 235.5,149.167 235.5,142.5C 241.5,142.5 247.5,142.5 253.5,142.5 Z M 212.5,144.5 C 212.829,158.677 212.496,172.677 211.5,186.5C 203.036,177.535 194.369,168.702 185.5,160C 194.527,154.822 203.527,149.655 212.5,144.5 Z M 151.5,146.5 C 154.403,150.63 157.07,154.963 159.5,159.5C 159.5,166.833 159.5,174.167 159.5,181.5C 153.472,172.789 147.806,163.789 142.5,154.5C 145.5,151.833 148.5,149.167 151.5,146.5 Z M 138.5,156.5 C 129.833,164.833 121.167,173.167 112.5,181.5C 112.333,170.495 112.5,159.495 113,148.5C 120.087,149.315 127.253,149.815 134.5,150C 135.719,152.278 137.052,154.445 138.5,156.5 Z M 451.5,150.5 C 456.833,155.5 462.167,160.5 467.5,165.5C 467.5,177.833 467.5,190.167 467.5,202.5C 462.167,202.5 456.833,202.5 451.5,202.5C 451.5,185.167 451.5,167.833 451.5,150.5 Z M 139.5,158.5 C 146.153,169.131 152.819,179.797 159.5,190.5C 159.5,195.167 159.5,199.833 159.5,204.5C 143.833,204.5 128.167,204.5 112.5,204.5C 112.5,197.833 112.5,191.167 112.5,184.5C 121.5,175.833 130.5,167.167 139.5,158.5 Z M 371.5,159.5 C 375.5,165.5 375.5,171.5 371.5,177.5C 371.5,171.5 371.5,165.5 371.5,159.5 Z M 349.5,160.5 C 350.5,160.5 351.5,160.5 352.5,160.5C 352.5,165.5 352.5,170.5 352.5,175.5C 346.294,174.442 344.128,170.776 346,164.5C 346.69,162.65 347.856,161.316 349.5,160.5 Z M 353.5,160.5 C 358.396,160.563 360.729,163.063 360.5,168C 360.729,172.937 358.396,175.437 353.5,175.5C 353.5,170.5 353.5,165.5 353.5,160.5 Z M 208.5,186.5 C 202.833,186.5 197.167,186.5 191.5,186.5C 186.137,179.797 181.137,172.797 176.5,165.5C 178.67,163.914 181.004,162.58 183.5,161.5C 192.188,169.521 200.521,177.854 208.5,186.5 Z M 161.5,163.5 C 166.896,171.941 172.563,180.274 178.5,188.5C 182.783,189.492 187.116,189.826 191.5,189.5C 194.963,193.464 198.63,197.298 202.5,201C 203.5,201.667 204.5,201.667 205.5,201C 207.963,197.535 210.796,194.369 214,191.5C 217.704,195.036 221.204,198.702 224.5,202.5C 207.742,202.572 191.076,203.072 174.5,204C 169.558,198.231 165.225,192.064 161.5,185.5C 161.5,178.167 161.5,170.833 161.5,163.5 Z M 408.5,167.5 C 418.833,167.5 429.167,167.5 439.5,167.5C 439.5,179.833 439.5,192.167 439.5,204.5C 417.164,204.667 394.831,204.5 372.5,204C 373.056,203.617 373.389,203.117 373.5,202.5C 384.5,198.833 391.833,191.5 395.5,180.5C 400.167,176.5 404.5,172.167 408.5,167.5 Z M 405.5,167.5 C 404.5,169.167 403.167,170.5 401.5,171.5C 401.5,170.167 401.5,168.833 401.5,167.5C 402.833,167.5 404.167,167.5 405.5,167.5 Z M 229.5,202.5 C 229.167,202.5 228.833,202.5 228.5,202.5C 223.86,198.527 219.527,194.194 215.5,189.5C 215.5,189.167 215.5,188.833 215.5,188.5C 220.134,183.695 224.634,178.695 229,173.5C 229.5,183.161 229.666,192.828 229.5,202.5 Z M 353.5,190.5 C 356.833,194.167 360.167,197.833 363.5,201.5C 346.573,204.052 329.906,202.719 313.5,197.5C 313.173,192.786 313.507,188.12 314.5,183.5C 326.978,188.746 339.978,191.08 353.5,190.5 Z M 369.5,186.5 C 369.5,190.833 369.5,195.167 369.5,199.5C 368.609,200.11 367.609,200.443 366.5,200.5C 363.5,197.167 360.5,193.833 357.5,190.5C 361.715,189.762 365.715,188.428 369.5,186.5 Z M 109.5,188.5 C 109.5,193.167 109.5,197.833 109.5,202.5C 104.833,202.5 100.167,202.5 95.5,202.5C 99.8333,197.5 104.5,192.833 109.5,188.5 Z M 231.5,188.5 C 236.167,188.5 240.833,188.5 245.5,188.5C 241.167,193.167 236.833,197.833 232.5,202.5C 232.167,202.5 231.833,202.5 231.5,202.5C 231.5,197.833 231.5,193.167 231.5,188.5 Z M 248.5,188.5 C 261.167,188.5 273.833,188.5 286.5,188.5C 286.5,193.167 286.5,197.833 286.5,202.5C 269.5,202.5 252.5,202.5 235.5,202.5C 239.833,197.833 244.167,193.167 248.5,188.5 Z M 195.5,189.5 C 200.833,189.5 206.167,189.5 211.5,189.5C 209.588,192.919 207.088,195.919 204,198.5C 200.264,196.266 197.43,193.266 195.5,189.5 Z M 161.5,194.5 C 164.313,197.446 166.646,200.779 168.5,204.5C 166.167,204.5 163.833,204.5 161.5,204.5C 161.5,201.167 161.5,197.833 161.5,194.5 Z M 176.5,206.5 C 181.316,205.35 186.316,205.184 191.5,206C 188.5,207.5 185.5,209 182.5,210.5C 180.471,209.156 178.471,207.823 176.5,206.5 Z"/></g>
<g><path style="opacity:1" fill="#cdcccc" d="M 141.5,65.5 C 165.167,65.5 188.833,65.5 212.5,65.5C 212.5,65.8333 212.5,66.1667 212.5,66.5C 195.5,66.5 178.5,66.5 161.5,66.5C 161.5,68.1667 161.5,69.8333 161.5,71.5C 160.5,71.1667 159.833,70.5 159.5,69.5C 159.5,68.5 159.5,67.5 159.5,66.5C 156.5,66.5 153.5,66.5 150.5,66.5C 147.287,66.81 144.287,66.4767 141.5,65.5 Z"/></g>
<g><path style="opacity:0.593" fill="#eaeaea" d="M 94.5,68.5 C 99.1667,73.8333 104.167,78.8333 109.5,83.5C 109.5,84.5 109.5,85.5 109.5,86.5C 103.871,82.206 98.5372,77.5393 93.5,72.5C 93.2322,70.901 93.5655,69.5676 94.5,68.5 Z"/></g>
<g><path style="opacity:0.944" fill="#d1d1d1" d="M 226.5,68.5 C 229.167,68.5 231.833,68.5 234.5,68.5C 238.5,72.8333 242.5,77.1667 246.5,81.5C 245.5,81.5 244.5,81.5 243.5,81.5C 239.87,77.369 236.037,73.369 232,69.5C 231.501,73.4862 231.334,77.4862 231.5,81.5C 231.5,96.5 231.5,111.5 231.5,126.5C 231.343,127.873 231.51,129.207 232,130.5C 234.167,129.512 236,128.179 237.5,126.5C 239.691,125.709 241.691,125.709 243.5,126.5C 239.36,128.739 235.36,131.239 231.5,134C 241.167,134.667 250.833,134.667 260.5,134C 263.447,131.564 265.78,128.731 267.5,125.5C 268.833,125.5 270.167,125.5 271.5,125.5C 269.189,128.147 266.856,130.814 264.5,133.5C 275.151,134.666 285.818,134.832 296.5,134C 293.629,131.297 290.962,128.464 288.5,125.5C 289.5,125.5 290.5,125.5 291.5,125.5C 293.795,128.297 296.295,130.964 299,133.5C 299.497,130.854 299.664,128.187 299.5,125.5C 300.167,125.5 300.833,125.5 301.5,125.5C 301.337,127.857 301.503,130.19 302,132.5C 304.372,130.297 306.539,127.963 308.5,125.5C 309.5,125.5 310.5,125.5 311.5,125.5C 309.038,128.464 306.371,131.297 303.5,134C 319.83,134.5 336.163,134.667 352.5,134.5C 352.5,131.5 352.5,128.5 352.5,125.5C 353.167,125.5 353.5,125.833 353.5,126.5C 353.5,129.167 353.5,131.833 353.5,134.5C 359.026,134.821 364.36,134.488 369.5,133.5C 371.819,133.992 373.819,134.992 375.5,136.5C 374.167,136.5 372.833,136.5 371.5,136.5C 371.5,141.833 371.5,147.167 371.5,152.5C 370.5,152.167 369.833,151.5 369.5,150.5C 369.5,145.833 369.5,141.167 369.5,136.5C 364.167,136.5 358.833,136.5 353.5,136.5C 353.5,138.5 353.5,140.5 353.5,142.5C 352.833,142.5 352.5,142.167 352.5,141.5C 352.5,139.833 352.5,138.167 352.5,136.5C 335.83,136.333 319.163,136.5 302.5,137C 303.056,137.383 303.389,137.883 303.5,138.5C 301.167,138.5 298.833,138.5 296.5,138.5C 296.611,137.883 296.944,137.383 297.5,137C 285.5,136.333 273.5,136.333 261.5,137C 260.944,137.383 260.611,137.883 260.5,138.5C 259.5,138.5 258.5,138.5 257.5,138.5C 257.611,137.883 257.944,137.383 258.5,137C 254,136.833 249.5,136.667 245,136.5C 240.114,136.507 235.614,137.174 231.5,138.5C 231.5,155.167 231.5,171.833 231.5,188.5C 231.5,193.167 231.5,197.833 231.5,202.5C 230.833,202.5 230.167,202.5 229.5,202.5C 229.666,192.828 229.5,183.161 229,173.5C 224.634,178.695 220.134,183.695 215.5,188.5C 215.5,187.5 215.5,186.5 215.5,185.5C 220.134,180.695 224.634,175.695 229,170.5C 229.5,159.172 229.667,147.838 229.5,136.5C 224.361,137.403 219.694,139.403 215.5,142.5C 215.5,141.5 215.5,140.5 215.5,139.5C 221.742,137.431 221.742,136.431 215.5,136.5C 215.5,135.833 215.5,135.167 215.5,134.5C 220.041,134.948 224.374,134.281 228.5,132.5C 229.666,111.508 229.833,90.5079 229,69.5C 224.631,74.0367 220.131,78.3701 215.5,82.5C 215.5,81.1667 215.5,79.8333 215.5,78.5C 219.791,75.8769 223.457,72.5436 226.5,68.5 Z M 243.5,81.5 C 239.5,81.5 235.5,81.5 231.5,81.5C 231.334,77.4862 231.501,73.4862 232,69.5C 236.037,73.369 239.87,77.369 243.5,81.5 Z M 267.5,125.5 C 265.78,128.731 263.447,131.564 260.5,134C 250.833,134.667 241.167,134.667 231.5,134C 235.36,131.239 239.36,128.739 243.5,126.5C 251.51,126.356 259.51,126.023 267.5,125.5 Z M 271.5,125.5 C 277.167,125.5 282.833,125.5 288.5,125.5C 290.962,128.464 293.629,131.297 296.5,134C 285.818,134.832 275.151,134.666 264.5,133.5C 266.856,130.814 269.189,128.147 271.5,125.5 Z M 291.5,125.5 C 294.167,125.5 296.833,125.5 299.5,125.5C 299.664,128.187 299.497,130.854 299,133.5C 296.295,130.964 293.795,128.297 291.5,125.5 Z M 301.5,125.5 C 303.833,125.5 306.167,125.5 308.5,125.5C 306.539,127.963 304.372,130.297 302,132.5C 301.503,130.19 301.337,127.857 301.5,125.5 Z M 231.5,126.5 C 233.5,126.5 235.5,126.5 237.5,126.5C 236,128.179 234.167,129.512 232,130.5C 231.51,129.207 231.343,127.873 231.5,126.5 Z M 257.5,138.5 C 248.833,138.5 240.167,138.5 231.5,138.5C 235.614,137.174 240.114,136.507 245,136.5C 249.5,136.667 254,136.833 258.5,137C 257.944,137.383 257.611,137.883 257.5,138.5 Z M 296.5,138.5 C 284.5,138.5 272.5,138.5 260.5,138.5C 260.611,137.883 260.944,137.383 261.5,137C 273.5,136.333 285.5,136.333 297.5,137C 296.944,137.383 296.611,137.883 296.5,138.5 Z M 352.5,141.5 C 350.86,140.68 349.193,139.847 347.5,139C 332.837,138.5 318.17,138.333 303.5,138.5C 303.389,137.883 303.056,137.383 302.5,137C 319.163,136.5 335.83,136.333 352.5,136.5C 352.5,138.167 352.5,139.833 352.5,141.5 Z M 369.5,150.5 C 364.718,146.776 359.385,144.109 353.5,142.5C 353.5,140.5 353.5,138.5 353.5,136.5C 358.833,136.5 364.167,136.5 369.5,136.5C 369.5,141.167 369.5,145.833 369.5,150.5 Z"/></g>
<g><path style="opacity:0.504" fill="#e1e0e0" d="M 367.5,67.5 C 369.565,67.5172 371.565,67.8505 373.5,68.5C 377.833,73.5 382.5,78.1667 387.5,82.5C 387.672,83.4916 387.338,84.1583 386.5,84.5C 381.535,80.0366 376.702,75.3699 372,70.5C 371.501,74.1516 371.335,77.8183 371.5,81.5C 370.508,81.6716 369.842,81.3382 369.5,80.5C 369.665,76.8183 369.499,73.1516 369,69.5C 365.629,72.7025 362.462,76.0359 359.5,79.5C 358.167,79.5 356.833,79.5 355.5,79.5C 359.806,75.8604 363.806,71.8604 367.5,67.5 Z"/></g>
<g><path style="opacity:1" fill="#cdcecd" d="M 439.5,68.5 C 440.167,68.5 440.833,68.5 441.5,68.5C 441.5,72.8333 441.5,77.1667 441.5,81.5C 440.833,81.5 440.167,81.5 439.5,81.5C 439.5,77.1667 439.5,72.8333 439.5,68.5 Z"/></g>
<g><path style="opacity:0.577" fill="#e9e9e9" d="M 505.5,68.5 C 506.833,68.5 507.5,69.1667 507.5,70.5C 503.5,73.8333 499.833,77.5 496.5,81.5C 495.167,81.5 493.833,81.5 492.5,81.5C 497.027,77.3946 501.36,73.0613 505.5,68.5 Z"/></g>
<g><path style="opacity:0.913" fill="#6a1f22" d="M 159.5,94.5 C 160.792,102.829 160.792,111.162 159.5,119.5C 157.512,122.128 155.512,124.795 153.5,127.5C 152.508,127.328 151.842,127.662 151.5,128.5C 147.506,130.887 143.172,132.387 138.5,133C 129.324,133.17 120.324,133.67 111.5,134.5C 110.833,134.5 110.167,134.5 109.5,134.5C 109.5,118.5 109.5,102.5 109.5,86.5C 109.5,85.5 109.5,84.5 109.5,83.5C 109.351,82.448 109.517,81.448 110,80.5C 121.138,81.1079 132.305,81.9412 143.5,83C 150.414,84.7629 155.747,88.5962 159.5,94.5 Z M 149.5,124.5 C 149.047,123.542 148.381,122.708 147.5,122C 153.622,115.174 155.122,107.34 152,98.5C 148.267,92.2681 142.767,89.2681 135.5,89.5C 135.089,96.334 135.756,103.001 137.5,109.5C 136.448,109.649 135.448,109.483 134.5,109C 127.298,101.631 119.965,94.4641 112.5,87.5C 112.281,86.325 112.614,85.325 113.5,84.5C 121.451,85.3028 129.451,85.8028 137.5,86C 155.146,89.7846 160.98,100.285 155,117.5C 153.629,120.266 151.796,122.599 149.5,124.5 Z M 112.5,90.5 C 120.132,97.6308 127.632,104.964 135,112.5C 135.499,116.821 135.666,121.154 135.5,125.5C 139.007,125.693 142.34,125.027 145.5,123.5C 146.522,123.855 147.189,124.522 147.5,125.5C 144.372,127.154 141.039,128.321 137.5,129C 129.255,129.183 121.088,129.683 113,130.5C 112.5,117.171 112.333,103.837 112.5,90.5 Z M 136.5,91.5 C 136.174,95.8839 136.508,100.217 137.5,104.5C 140.128,106.915 140.128,109.415 137.5,112C 140.048,114.885 142.882,117.385 146,119.5C 148.446,117.721 150.113,115.388 151,112.5C 152.978,100.663 148.145,93.6632 136.5,91.5 Z M 136.5,114.5 C 136.5,117.5 136.5,120.5 136.5,123.5C 139.059,123.61 141.392,122.944 143.5,121.5C 141.479,118.812 139.146,116.479 136.5,114.5 Z"/></g>
<g><path style="opacity:0.589" fill="#e8e8e8" d="M 212.5,82.5 C 212.5,83.8333 212.5,85.1667 212.5,86.5C 206.167,92.1667 200.167,98.1667 194.5,104.5C 193.167,104.5 191.833,104.5 190.5,104.5C 197.5,96.8333 204.833,89.5 212.5,82.5 Z"/></g>
<g><path style="opacity:0.594" fill="#e6e5e5" d="M 350.5,83.5 C 351.833,83.5 353.167,83.5 354.5,83.5C 351.833,86.5 349.167,89.5 346.5,92.5C 345.833,92.5 345.5,92.8333 345.5,93.5C 344.833,93.5 344.5,93.8333 344.5,94.5C 341.167,97.5 337.833,100.5 334.5,103.5C 333.646,102.368 333.646,101.035 334.5,99.5C 339.833,94.8333 344.833,89.8333 349.5,84.5C 350.167,84.5 350.5,84.1667 350.5,83.5 Z"/></g>
<g><path style="opacity:1" fill="#d7d7d7" d="M 439.5,84.5 C 440.167,84.5 440.833,84.5 441.5,84.5C 441.333,100.17 441.5,115.837 442,131.5C 444.037,129.294 446.203,127.294 448.5,125.5C 448.5,126.5 448.5,127.5 448.5,128.5C 446.37,130.127 444.37,131.96 442.5,134C 444.473,134.495 446.473,134.662 448.5,134.5C 448.5,135.167 448.5,135.833 448.5,136.5C 446.143,136.337 443.81,136.503 441.5,137C 443.703,139.372 446.037,141.539 448.5,143.5C 448.5,144.5 448.5,145.5 448.5,146.5C 446.203,144.706 444.037,142.706 442,140.5C 441.5,149.16 441.334,157.827 441.5,166.5C 440.833,166.5 440.167,166.5 439.5,166.5C 439.666,156.828 439.5,147.161 439,137.5C 429.298,147.035 419.798,156.702 410.5,166.5C 409.5,166.5 408.5,166.5 407.5,166.5C 416.964,156.535 426.631,146.702 436.5,137C 418.836,136.5 401.17,136.333 383.5,136.5C 381.62,136.771 380.287,136.104 379.5,134.5C 398.17,134.667 416.836,134.5 435.5,134C 420.299,118.632 404.965,103.465 389.5,88.5C 389.328,87.5084 389.662,86.8417 390.5,86.5C 406.799,102.298 422.965,118.298 439,134.5C 439.5,117.837 439.667,101.17 439.5,84.5 Z M 439.5,166.5 C 429.833,166.5 420.167,166.5 410.5,166.5C 419.798,156.702 429.298,147.035 439,137.5C 439.5,147.161 439.666,156.828 439.5,166.5 Z"/></g>
<g><path style="opacity:1" fill="#d4d4d4" d="M 509.5,84.5 C 509.833,84.5 510.167,84.5 510.5,84.5C 510.5,101.167 510.5,117.833 510.5,134.5C 533.167,135.167 533.167,135.833 510.5,136.5C 510.5,159.5 510.5,182.5 510.5,205.5C 497.167,205.5 483.833,205.5 470.5,205.5C 470.5,205.167 470.5,204.833 470.5,204.5C 482.171,204.667 493.838,204.5 505.5,204C 497.298,195.631 488.965,187.464 480.5,179.5C 480.5,178.167 480.5,176.833 480.5,175.5C 490.132,184.631 499.632,193.964 509,203.5C 509.5,181.169 509.667,158.836 509.5,136.5C 499.833,136.5 490.167,136.5 480.5,136.5C 480.5,135.833 480.5,135.167 480.5,134.5C 490.167,134.5 499.833,134.5 509.5,134.5C 509.5,117.833 509.5,101.167 509.5,84.5 Z"/></g>
<g><path style="opacity:1" fill="#cccbcb" d="M 371.5,85.5 C 371.5,100.5 371.5,115.5 371.5,130.5C 370.5,130.167 369.833,129.5 369.5,128.5C 369.5,114.167 369.5,99.8333 369.5,85.5C 370.167,84.1667 370.833,84.1667 371.5,85.5 Z"/></g>
<g><path style="opacity:1" fill="#b7b7b7" d="M 485.5,88.5 C 486.067,89.4202 485.401,89.7535 483.5,89.5C 482.5,89.5 481.5,89.5 480.5,89.5C 480.5,90.5 480.5,91.5 480.5,92.5C 480.5,93.8333 480.5,95.1667 480.5,96.5C 480.5,109.167 480.5,121.833 480.5,134.5C 480.5,135.167 480.5,135.833 480.5,136.5C 480.5,149.5 480.5,162.5 480.5,175.5C 480.5,176.833 480.5,178.167 480.5,179.5C 480.5,186.5 480.5,193.5 480.5,200.5C 481.429,201.798 481.096,201.798 479.5,200.5C 479.5,192.833 479.5,185.167 479.5,177.5C 479.5,176.167 479.5,174.833 479.5,173.5C 479.5,161.167 479.5,148.833 479.5,136.5C 476.5,136.5 473.5,136.5 470.5,136.5C 470.5,135.833 470.5,135.167 470.5,134.5C 473.5,134.5 476.5,134.5 479.5,134.5C 479.5,122.5 479.5,110.5 479.5,98.5C 479.5,97.1667 479.5,95.8333 479.5,94.5C 479.5,92.8333 479.5,91.1667 479.5,89.5C 477.801,89.6602 476.134,89.4935 474.5,89C 478.152,88.5014 481.818,88.3347 485.5,88.5 Z"/></g>
<g><path style="opacity:0.687" fill="#e7e7e7" d="M 488.5,84.5 C 489.833,84.5 491.167,84.5 492.5,84.5C 488.833,88.8333 484.833,92.8333 480.5,96.5C 480.5,95.1667 480.5,93.8333 480.5,92.5C 481.833,91.8333 482.833,90.8333 483.5,89.5C 485.401,89.7535 486.067,89.4202 485.5,88.5C 486.5,87.1667 487.5,85.8333 488.5,84.5 Z"/></g>
<g><path style="opacity:0.648" fill="#cdcdcd" d="M 353.5,122.5 C 352.833,122.5 352.5,122.167 352.5,121.5C 352.5,117.833 352.5,114.167 352.5,110.5C 350.345,110.628 348.345,110.128 346.5,109C 343.323,104.587 342.656,99.7534 344.5,94.5C 345.167,94.5 345.5,94.1667 345.5,93.5C 346.167,93.5 346.5,93.1667 346.5,92.5C 360.034,89.1995 364.867,94.1995 361,107.5C 359.005,109.747 356.505,110.747 353.5,110.5C 353.5,114.5 353.5,118.5 353.5,122.5 Z M 349.5,93.5 C 347.856,94.3164 346.69,95.6498 346,97.5C 344.128,103.776 346.294,107.442 352.5,108.5C 352.5,103.5 352.5,98.5 352.5,93.5C 351.5,93.5 350.5,93.5 349.5,93.5 Z M 353.5,93.5 C 353.5,98.5 353.5,103.5 353.5,108.5C 358.396,108.437 360.729,105.937 360.5,101C 360.729,96.0633 358.396,93.5633 353.5,93.5 Z"/></g>
<g><path style="opacity:0.617" fill="#e9e9e9" d="M 479.5,94.5 C 479.5,95.8333 479.5,97.1667 479.5,98.5C 476.5,101.167 473.5,103.833 470.5,106.5C 470.5,105.167 470.5,103.833 470.5,102.5C 473.5,99.8333 476.5,97.1667 479.5,94.5 Z"/></g>
<g><path style="opacity:1" fill="#b4b5b4" d="M 190.5,104.5 C 191.833,104.5 193.167,104.5 194.5,104.5C 198.833,104.5 203.167,104.5 207.5,104.5C 208.798,103.571 208.798,103.904 207.5,105.5C 202.5,105.5 197.5,105.5 192.5,105.5C 191.167,105.5 189.833,105.5 188.5,105.5C 187.167,105.5 185.833,105.5 184.5,105.5C 184.5,106.833 184.5,108.167 184.5,109.5C 184.5,110.167 184.167,110.5 183.5,110.5C 183.334,106.486 183.501,102.486 184,98.5C 184.495,100.473 184.662,102.473 184.5,104.5C 186.5,104.5 188.5,104.5 190.5,104.5 Z M 188.5,105.5 C 187.5,107.167 186.167,108.5 184.5,109.5C 184.5,108.167 184.5,106.833 184.5,105.5C 185.833,105.5 187.167,105.5 188.5,105.5 Z"/></g>
<g><path style="opacity:0.608" fill="#e9e7e7" d="M 330.5,104.5 C 331.625,105.348 331.625,106.348 330.5,107.5C 327.14,111.527 323.473,115.194 319.5,118.5C 318.596,117.791 318.263,116.791 318.5,115.5C 322.5,111.833 326.5,108.167 330.5,104.5 Z"/></g>
<g><path style="opacity:0.624" fill="#ededed" d="M 188.5,105.5 C 189.833,105.5 191.167,105.5 192.5,105.5C 188.793,110.208 184.46,114.208 179.5,117.5C 179.833,116.167 180.167,114.833 180.5,113.5C 181.833,112.833 182.833,111.833 183.5,110.5C 184.167,110.5 184.5,110.167 184.5,109.5C 186.167,108.5 187.5,107.167 188.5,105.5 Z"/></g>
<g><path style="opacity:0.564" fill="#e9e9e9" d="M 467.5,106.5 C 467.5,107.833 467.5,109.167 467.5,110.5C 461.871,114.794 456.537,119.461 451.5,124.5C 451.5,123.5 451.5,122.5 451.5,121.5C 456.833,116.5 462.167,111.5 467.5,106.5 Z"/></g>
<g><path style="opacity:0.88" fill="#d4d4d4" d="M 112.5,87.5 C 119.965,94.4641 127.298,101.631 134.5,109C 135.448,109.483 136.448,109.649 137.5,109.5C 135.756,103.001 135.089,96.334 135.5,89.5C 142.767,89.2681 148.267,92.2681 152,98.5C 155.122,107.34 153.622,115.174 147.5,122C 148.381,122.708 149.047,123.542 149.5,124.5C 149.158,125.338 148.492,125.672 147.5,125.5C 147.189,124.522 146.522,123.855 145.5,123.5C 142.34,125.027 139.007,125.693 135.5,125.5C 135.666,121.154 135.499,116.821 135,112.5C 127.632,104.964 120.132,97.6308 112.5,90.5C 112.5,89.5 112.5,88.5 112.5,87.5 Z M 136.5,91.5 C 136.174,95.8839 136.508,100.217 137.5,104.5C 140.128,106.915 140.128,109.415 137.5,112C 140.048,114.885 142.882,117.385 146,119.5C 148.446,117.721 150.113,115.388 151,112.5C 152.978,100.663 148.145,93.6632 136.5,91.5 Z M 136.5,114.5 C 136.5,117.5 136.5,120.5 136.5,123.5C 139.059,123.61 141.392,122.944 143.5,121.5C 141.479,118.812 139.146,116.479 136.5,114.5 Z"/></g>
<g><path style="opacity:1" fill="#d1d0d0" d="M 159.5,74.5 C 160.492,74.3284 161.158,74.6618 161.5,75.5C 161.333,94.5029 161.5,113.503 162,132.5C 166.036,128.296 170.202,124.296 174.5,120.5C 171.154,126.359 166.82,131.526 161.5,136C 160.255,136.791 158.922,137.291 157.5,137.5C 136.34,136.503 115.007,136.169 93.5,136.5C 93.5,135.833 93.5,135.167 93.5,134.5C 98.8333,134.5 104.167,134.5 109.5,134.5C 110.167,134.5 110.833,134.5 111.5,134.5C 126.504,134.667 141.504,134.5 156.5,134C 154.627,132.296 152.96,130.463 151.5,128.5C 151.842,127.662 152.508,127.328 153.5,127.5C 155.127,129.63 156.96,131.63 159,133.5C 159.499,128.845 159.666,124.179 159.5,119.5C 160.792,111.162 160.792,102.829 159.5,94.5C 159.5,87.8333 159.5,81.1667 159.5,74.5 Z"/></g>
<g><path style="opacity:0.415" fill="#e1dcdc" d="M 314.5,119.5 C 315.833,119.5 316.5,120.167 316.5,121.5C 315.833,121.5 315.5,121.833 315.5,122.5C 314.5,122.5 313.5,122.5 312.5,122.5C 313.167,121.5 313.833,120.5 314.5,119.5 Z"/></g>
<g><path style="opacity:1" fill="#cdcecd" d="M 90.5,134.5 C 90.5,135.167 90.5,135.833 90.5,136.5C 62.5,135.833 62.5,135.167 90.5,134.5 Z"/></g>
<g><path style="opacity:1" fill="#cdcdcd" d="M 169.5,134.5 C 183.833,134.5 198.167,134.5 212.5,134.5C 212.5,135.167 212.5,135.833 212.5,136.5C 197.167,136.5 181.833,136.5 166.5,136.5C 166.973,135.094 167.973,134.427 169.5,134.5 Z"/></g>
<g><path style="opacity:1" fill="#cdcecd" d="M 451.5,134.5 C 456.833,134.5 462.167,134.5 467.5,134.5C 467.5,135.167 467.5,135.833 467.5,136.5C 462.167,136.5 456.833,136.5 451.5,136.5C 451.5,135.833 451.5,135.167 451.5,134.5 Z"/></g>
<g><path style="opacity:1" fill="#cbc9c9" d="M 161.5,139.5 C 161.5,144.5 161.5,149.5 161.5,154.5C 159.896,153.713 159.229,152.38 159.5,150.5C 159.5,147.5 159.5,144.5 159.5,141.5C 159.833,140.5 160.5,139.833 161.5,139.5 Z"/></g>
<g><path style="opacity:0.484" fill="#e6e6e6" d="M 292.5,141.5 C 293.5,141.5 294.5,141.5 295.5,141.5C 290.5,147.167 285.167,152.5 279.5,157.5C 279.5,156.5 279.5,155.5 279.5,154.5C 284.167,150.5 288.5,146.167 292.5,141.5 Z"/></g>
<g><path style="opacity:1" fill="#cdcdcd" d="M 299.5,141.5 C 300.167,141.5 300.833,141.5 301.5,141.5C 301.5,162.5 301.5,183.5 301.5,204.5C 308.167,204.5 314.833,204.5 321.5,204.5C 324.059,204.198 326.393,204.532 328.5,205.5C 319.5,205.5 310.5,205.5 301.5,205.5C 300.833,218.833 300.167,218.833 299.5,205.5C 296.167,205.5 292.833,205.5 289.5,205.5C 289.5,205.167 289.5,204.833 289.5,204.5C 292.833,204.5 296.167,204.5 299.5,204.5C 299.5,183.5 299.5,162.5 299.5,141.5 Z"/></g>
<g><path style="opacity:0.52" fill="#e6e5e5" d="M 304.5,141.5 C 305.5,141.5 306.5,141.5 307.5,141.5C 322.194,156.86 337.194,171.86 352.5,186.5C 351.368,187.354 350.035,187.354 348.5,186.5C 333.833,171.5 319.167,156.5 304.5,141.5 Z"/></g>
<g><path style="opacity:0.506" fill="#cbcaca" d="M 256.5,142.5 C 249.5,150.5 242.5,158.5 235.5,166.5C 234.314,165.295 234.314,163.961 235.5,162.5C 241.842,156.157 247.842,149.491 253.5,142.5C 254.652,141.375 255.652,141.375 256.5,142.5 Z"/></g>
<g><path style="opacity:0.503" fill="#e6e6e6" d="M 150.5,144.5 C 151.338,144.842 151.672,145.508 151.5,146.5C 148.5,149.167 145.5,151.833 142.5,154.5C 141.662,154.158 141.328,153.492 141.5,152.5C 144.5,149.833 147.5,147.167 150.5,144.5 Z"/></g>
<g><path style="opacity:1" fill="#b4b5b4" d="M 279.5,154.5 C 279.5,155.5 279.5,156.5 279.5,157.5C 279.5,165.5 279.5,173.5 279.5,181.5C 280.429,182.798 280.096,182.798 278.5,181.5C 278.5,174.167 278.5,166.833 278.5,159.5C 278.5,158.5 278.5,157.5 278.5,156.5C 278.5,152.833 278.5,149.167 278.5,145.5C 280.096,144.202 280.429,144.202 279.5,145.5C 279.5,148.5 279.5,151.5 279.5,154.5 Z"/></g>
<g><path style="opacity:0.64" fill="#cdcdcd" d="M 352.5,145.5 C 353.167,145.5 353.5,145.833 353.5,146.5C 353.5,150.5 353.5,154.5 353.5,158.5C 359.732,158.566 362.732,161.733 362.5,168C 362.667,174.5 359.5,177.667 353,177.5C 346.5,177.667 343.333,174.5 343.5,168C 343.268,161.733 346.268,158.566 352.5,158.5C 352.5,154.167 352.5,149.833 352.5,145.5 Z M 349.5,160.5 C 347.856,161.316 346.69,162.65 346,164.5C 344.128,170.776 346.294,174.442 352.5,175.5C 352.5,170.5 352.5,165.5 352.5,160.5C 351.5,160.5 350.5,160.5 349.5,160.5 Z M 353.5,160.5 C 353.5,165.5 353.5,170.5 353.5,175.5C 358.396,175.437 360.729,172.937 360.5,168C 360.729,163.063 358.396,160.563 353.5,160.5 Z"/></g>
<g><path style="opacity:0.524" fill="#e6e6e6" d="M 451.5,147.5 C 456.833,152.5 462.167,157.5 467.5,162.5C 467.5,163.5 467.5,164.5 467.5,165.5C 462.167,160.5 456.833,155.5 451.5,150.5C 451.5,149.5 451.5,148.5 451.5,147.5 Z"/></g>
<g><path style="opacity:0.489" fill="#e6e6e6" d="M 138.5,156.5 C 139.338,156.842 139.672,157.508 139.5,158.5C 130.5,167.167 121.5,175.833 112.5,184.5C 112.5,183.5 112.5,182.5 112.5,181.5C 121.167,173.167 129.833,164.833 138.5,156.5 Z"/></g>
<g><path style="opacity:0.493" fill="#e4e4e3" d="M 278.5,156.5 C 278.5,157.5 278.5,158.5 278.5,159.5C 269.833,167.5 261.5,175.833 253.5,184.5C 252.039,185.686 250.705,185.686 249.5,184.5C 259.167,175.167 268.833,165.833 278.5,156.5 Z"/></g>
<g><path style="opacity:1" fill="#cccaca" d="M 369.5,155.5 C 371.104,156.287 371.771,157.62 371.5,159.5C 371.5,165.5 371.5,171.5 371.5,177.5C 371.573,179.027 370.906,180.027 369.5,180.5C 369.5,172.167 369.5,163.833 369.5,155.5 Z"/></g>
<g><path style="opacity:0.559" fill="#d7d7d7" d="M 164.5,138.5 C 170.797,145.298 177.297,151.965 184,158.5C 193.312,152.763 202.812,147.429 212.5,142.5C 212.5,143.167 212.5,143.833 212.5,144.5C 203.527,149.655 194.527,154.822 185.5,160C 194.369,168.702 203.036,177.535 211.5,186.5C 210.5,186.5 209.5,186.5 208.5,186.5C 200.521,177.854 192.188,169.521 183.5,161.5C 181.004,162.58 178.67,163.914 176.5,165.5C 181.137,172.797 186.137,179.797 191.5,186.5C 190.5,186.5 189.5,186.5 188.5,186.5C 182.941,179.766 177.941,172.599 173.5,165C 176.167,163 178.833,161 181.5,159C 174.964,152.631 168.631,146.131 162.5,139.5C 162.842,138.662 163.508,138.328 164.5,138.5 Z M 208.5,186.5 C 202.833,186.5 197.167,186.5 191.5,186.5C 186.137,179.797 181.137,172.797 176.5,165.5C 178.67,163.914 181.004,162.58 183.5,161.5C 192.188,169.521 200.521,177.854 208.5,186.5 Z"/></g>
<g><path style="opacity:1" fill="#cccbcb" d="M 159.5,159.5 C 161.104,160.287 161.771,161.62 161.5,163.5C 161.5,170.833 161.5,178.167 161.5,185.5C 159.896,184.713 159.229,183.38 159.5,181.5C 159.5,174.167 159.5,166.833 159.5,159.5 Z"/></g>
<g><path style="opacity:0.677" fill="#ececec" d="M 470.5,166.5 C 473.786,168.451 476.786,170.785 479.5,173.5C 479.5,174.833 479.5,176.167 479.5,177.5C 476.5,174.833 473.5,172.167 470.5,169.5C 470.5,168.5 470.5,167.5 470.5,166.5 Z"/></g>
<g><path style="opacity:0.475" fill="#e5e5e5" d="M 405.5,167.5 C 406.5,167.5 407.5,167.5 408.5,167.5C 404.5,172.167 400.167,176.5 395.5,180.5C 395.833,179.167 396.167,177.833 396.5,176.5C 398.167,175.5 399.5,174.167 400.5,172.5C 401.167,172.5 401.5,172.167 401.5,171.5C 403.167,170.5 404.5,169.167 405.5,167.5 Z"/></g>
<g><path style="opacity:1" fill="#c8c7c7" d="M 407.5,166.5 C 408.5,166.5 409.5,166.5 410.5,166.5C 420.167,166.5 429.833,166.5 439.5,166.5C 440.167,166.5 440.833,166.5 441.5,166.5C 442.5,166.5 443.5,166.5 444.5,166.5C 445.798,165.571 445.798,165.904 444.5,167.5C 443.5,167.5 442.5,167.5 441.5,167.5C 441.5,179.833 441.5,192.167 441.5,204.5C 443.833,204.5 446.167,204.5 448.5,204.5C 448.5,204.833 448.5,205.167 448.5,205.5C 446.167,205.5 443.833,205.5 441.5,205.5C 440.833,224.167 440.167,224.167 439.5,205.5C 414.167,205.5 388.833,205.5 363.5,205.5C 366.619,204.13 369.952,203.13 373.5,202.5C 373.389,203.117 373.056,203.617 372.5,204C 394.831,204.5 417.164,204.667 439.5,204.5C 439.5,192.167 439.5,179.833 439.5,167.5C 429.167,167.5 418.833,167.5 408.5,167.5C 407.5,167.5 406.5,167.5 405.5,167.5C 404.167,167.5 402.833,167.5 401.5,167.5C 401.5,168.833 401.5,170.167 401.5,171.5C 401.5,172.167 401.167,172.5 400.5,172.5C 400.334,168.486 400.501,164.486 401,160.5C 401.495,162.473 401.662,164.473 401.5,166.5C 403.5,166.5 405.5,166.5 407.5,166.5 Z M 405.5,167.5 C 404.5,169.167 403.167,170.5 401.5,171.5C 401.5,170.167 401.5,168.833 401.5,167.5C 402.833,167.5 404.167,167.5 405.5,167.5 Z"/></g>
<g><path style="opacity:1" fill="#cccbcb" d="M 371.5,184.5 C 371.5,189.167 371.5,193.833 371.5,198.5C 370.994,200.105 370.327,200.439 369.5,199.5C 369.5,195.167 369.5,190.833 369.5,186.5C 369.833,185.5 370.5,184.833 371.5,184.5 Z"/></g>
<g><path style="opacity:0.519" fill="#e6e6e6" d="M 109.5,185.5 C 109.5,186.5 109.5,187.5 109.5,188.5C 104.5,192.833 99.8333,197.5 95.5,202.5C 94.1667,202.5 93.5,201.833 93.5,200.5C 98.8333,195.5 104.167,190.5 109.5,185.5 Z"/></g>
<g><path style="opacity:0.613" fill="#ddd6d6" d="M 389.5,184.5 C 386.833,189.167 383.167,192.833 378.5,195.5C 381.833,191.5 385.5,187.833 389.5,184.5 Z"/></g>
<g><path style="opacity:0.52" fill="#e6e6e6" d="M 245.5,188.5 C 246.5,188.5 247.5,188.5 248.5,188.5C 244.167,193.167 239.833,197.833 235.5,202.5C 234.5,202.5 233.5,202.5 232.5,202.5C 236.833,197.833 241.167,193.167 245.5,188.5 Z"/></g>
<g><path style="opacity:0.51" fill="#d4d4d4" d="M 191.5,189.5 C 192.833,189.5 194.167,189.5 195.5,189.5C 197.43,193.266 200.264,196.266 204,198.5C 207.088,195.919 209.588,192.919 211.5,189.5C 212.833,189.5 214.167,189.5 215.5,189.5C 219.527,194.194 223.86,198.527 228.5,202.5C 227.167,202.5 225.833,202.5 224.5,202.5C 221.204,198.702 217.704,195.036 214,191.5C 210.796,194.369 207.963,197.535 205.5,201C 204.5,201.667 203.5,201.667 202.5,201C 198.63,197.298 194.963,193.464 191.5,189.5 Z M 195.5,189.5 C 200.833,189.5 206.167,189.5 211.5,189.5C 209.588,192.919 207.088,195.919 204,198.5C 200.264,196.266 197.43,193.266 195.5,189.5 Z"/></g>
<g><path style="opacity:1" fill="#cdcdcd" d="M 159.5,190.5 C 161.104,191.287 161.771,192.62 161.5,194.5C 161.5,197.833 161.5,201.167 161.5,204.5C 163.833,204.5 166.167,204.5 168.5,204.5C 169.492,204.328 170.158,204.662 170.5,205.5C 167.5,205.5 164.5,205.5 161.5,205.5C 160.833,244.167 160.167,244.167 159.5,205.5C 143.833,205.5 128.167,205.5 112.5,205.5C 112.5,205.167 112.5,204.833 112.5,204.5C 128.167,204.5 143.833,204.5 159.5,204.5C 159.5,199.833 159.5,195.167 159.5,190.5 Z"/></g>
<g><path style="opacity:0.524" fill="#ebeaea" d="M 353.5,190.5 C 354.833,190.5 356.167,190.5 357.5,190.5C 360.5,193.833 363.5,197.167 366.5,200.5C 365.791,201.404 364.791,201.737 363.5,201.5C 360.167,197.833 356.833,194.167 353.5,190.5 Z"/></g>
<g><path style="opacity:0.915" fill="#202020" d="M 262.5,222.5 C 265.85,222.335 269.183,222.502 272.5,223C 273.386,224.902 273.053,226.735 271.5,228.5C 266.702,226.625 264.369,228.292 264.5,233.5C 266.5,233.5 268.5,233.5 270.5,233.5C 270.5,235.167 270.5,236.833 270.5,238.5C 268.5,238.5 266.5,238.5 264.5,238.5C 264.5,245.5 264.5,252.5 264.5,259.5C 262.5,259.5 260.5,259.5 258.5,259.5C 258.5,252.5 258.5,245.5 258.5,238.5C 256.833,238.5 255.167,238.5 253.5,238.5C 253.162,234.849 254.828,233.183 258.5,233.5C 257.658,228.949 258.992,225.283 262.5,222.5 Z"/></g>
<g><path style="opacity:0.888" fill="#202020" d="M 486.5,222.5 C 488.5,222.5 490.5,222.5 492.5,222.5C 492.334,229.508 492.5,236.508 493,243.5C 495.463,240.035 498.296,236.869 501.5,234C 504.167,233.333 506.833,233.333 509.5,234C 505.797,237.367 502.464,241.034 499.5,245C 502.926,249.848 506.592,254.515 510.5,259C 507.833,259.667 505.167,259.667 502.5,259C 499.992,255.662 497.325,252.495 494.5,249.5C 493.914,249.709 493.414,250.043 493,250.5C 492.502,253.482 492.335,256.482 492.5,259.5C 490.5,259.5 488.5,259.5 486.5,259.5C 486.5,247.167 486.5,234.833 486.5,222.5 Z"/></g>
<g><path style="opacity:0.9" fill="#202020" d="M 285.5,232.5 C 287.5,232.5 289.5,232.5 291.5,232.5C 291.5,234.5 291.5,236.5 291.5,238.5C 287.406,237.705 284.239,239.038 282,242.5C 281.501,248.157 281.334,253.824 281.5,259.5C 279.5,259.5 277.5,259.5 275.5,259.5C 275.5,250.833 275.5,242.167 275.5,233.5C 277.167,233.5 278.833,233.5 280.5,233.5C 280.351,234.552 280.517,235.552 281,236.5C 282.397,234.93 283.897,233.596 285.5,232.5 Z"/></g>
<g><path style="opacity:0.89" fill="#202020" d="M 302.5,232.5 C 307.715,231.702 312.215,233.036 316,236.5C 316.5,244.159 316.666,251.826 316.5,259.5C 314.234,259.859 312.401,259.192 311,257.5C 305.319,261.78 299.985,261.447 295,256.5C 293.072,250.521 294.905,246.354 300.5,244C 303.817,243.502 307.15,243.335 310.5,243.5C 310.822,241.278 310.155,239.444 308.5,238C 305.344,237.397 302.344,237.897 299.5,239.5C 298.05,238.345 297.05,236.845 296.5,235C 298.611,234.155 300.611,233.322 302.5,232.5 Z M 304.5,247.5 C 306.5,247.5 308.5,247.5 310.5,247.5C 311.181,252.155 309.181,254.822 304.5,255.5C 299.308,253.012 299.308,250.345 304.5,247.5 Z"/></g>
<g><path style="opacity:0.877" fill="#202020" d="M 333.5,232.5 C 337.634,231.943 341.301,232.943 344.5,235.5C 349.328,232.046 354.328,231.713 359.5,234.5C 360.934,236.22 361.767,238.22 362,240.5C 362.5,246.825 362.666,253.158 362.5,259.5C 360.167,259.5 357.833,259.5 355.5,259.5C 355.666,252.825 355.5,246.158 355,239.5C 351.039,236.96 348.039,237.96 346,242.5C 345.501,248.157 345.334,253.824 345.5,259.5C 343.5,259.5 341.5,259.5 339.5,259.5C 339.666,253.158 339.5,246.825 339,240.5C 335.711,236.912 332.711,237.245 330,241.5C 329.501,247.491 329.334,253.491 329.5,259.5C 327.5,259.5 325.5,259.5 323.5,259.5C 323.5,250.833 323.5,242.167 323.5,233.5C 325.766,233.141 327.599,233.808 329,235.5C 330.409,234.219 331.909,233.219 333.5,232.5 Z"/></g>
<g><path style="opacity:0.849" fill="#202020" d="M 376.5,232.5 C 387.605,231.941 392.605,237.274 391.5,248.5C 385.833,248.5 380.167,248.5 374.5,248.5C 374.444,251.561 375.778,253.728 378.5,255C 382.297,255.59 385.964,255.09 389.5,253.5C 390.76,255.353 390.76,257.186 389.5,259C 371.989,262.822 365.156,255.989 369,238.5C 371.109,235.878 373.609,233.878 376.5,232.5 Z M 377.5,237.5 C 381.766,237.125 384.433,238.959 385.5,243C 381.848,243.499 378.182,243.665 374.5,243.5C 374.615,241.053 375.615,239.053 377.5,237.5 Z"/></g>
<g><path style="opacity:0.88" fill="#202020" d="M 443.5,232.5 C 456.993,232.432 462.16,239.098 459,252.5C 454.852,259.996 448.685,262.163 440.5,259C 434.401,253.257 432.901,246.423 436,238.5C 438.109,235.878 440.609,233.878 443.5,232.5 Z M 445.5,237.5 C 450.946,237.949 453.612,240.949 453.5,246.5C 453.12,254.087 449.62,256.421 443,253.5C 439.686,247.443 440.52,242.109 445.5,237.5 Z"/></g>
<g><path style="opacity:0.9" fill="#202020" d="M 475.5,232.5 C 477.5,232.5 479.5,232.5 481.5,232.5C 481.5,234.5 481.5,236.5 481.5,238.5C 477.406,237.705 474.239,239.038 472,242.5C 471.501,248.157 471.334,253.824 471.5,259.5C 469.5,259.5 467.5,259.5 465.5,259.5C 465.5,250.833 465.5,242.167 465.5,233.5C 467.167,233.5 468.833,233.5 470.5,233.5C 470.351,234.552 470.517,235.552 471,236.5C 472.397,234.93 473.897,233.596 475.5,232.5 Z"/></g>
<g><path style="opacity:0.883" fill="#202020" d="M 393.5,233.5 C 395.833,233.5 398.167,233.5 400.5,233.5C 401.541,239.332 403.041,244.999 405,250.5C 406.198,245.074 407.698,239.741 409.5,234.5C 412.034,233.223 414.534,233.223 417,234.5C 418.368,239.984 420.034,245.317 422,250.5C 423.331,245.171 424.665,239.838 426,234.5C 428.041,233.577 430.208,233.244 432.5,233.5C 430.375,241.878 428.041,250.212 425.5,258.5C 422.966,259.777 420.466,259.777 418,258.5C 416.333,252.5 414.667,246.5 413,240.5C 411.536,246.558 409.87,252.558 408,258.5C 405.619,259.435 403.119,259.768 400.5,259.5C 398.167,250.834 395.834,242.167 393.5,233.5 Z"/></g>
</svg>
